<mxfile host="app.diagrams.net" modified="2023-04-25T08:47:15.961Z" agent="Mozilla/5.0 (Macintosh; Intel Mac OS X 10_15_7) AppleWebKit/605.1.15 (KHTML, like Gecko) Version/16.4 Safari/605.1.15" etag="MVs99W57seaF2yMSX6Rz" version="21.2.1" type="device">
  <diagram id="C5RBs43oDa-KdzZeNtuy" name="Page-1">
    <mxGraphModel dx="985" dy="582" grid="1" gridSize="10" guides="1" tooltips="1" connect="1" arrows="1" fold="1" page="1" pageScale="1" pageWidth="1169" pageHeight="827" background="#ffffff" math="0" shadow="0">
      <root>
        <mxCell id="WIyWlLk6GJQsqaUBKTNV-0" />
        <mxCell id="WIyWlLk6GJQsqaUBKTNV-1" parent="WIyWlLk6GJQsqaUBKTNV-0" />
        <mxCell id="wR84KsybCmgSTVY2d7rB-33" value="performs" style="edgeStyle=orthogonalEdgeStyle;rounded=0;orthogonalLoop=1;jettySize=auto;html=1;endArrow=none;endFill=0;" edge="1" parent="WIyWlLk6GJQsqaUBKTNV-1" source="zkfFHV4jXpPFQw0GAbJ--0" target="wR84KsybCmgSTVY2d7rB-9">
          <mxGeometry relative="1" as="geometry" />
        </mxCell>
        <mxCell id="wR84KsybCmgSTVY2d7rB-29" style="edgeStyle=orthogonalEdgeStyle;rounded=0;orthogonalLoop=1;jettySize=auto;html=1;exitX=0.5;exitY=0;exitDx=0;exitDy=0;endArrow=block;endFill=0;" edge="1" parent="WIyWlLk6GJQsqaUBKTNV-1" source="zkfFHV4jXpPFQw0GAbJ--6" target="wR84KsybCmgSTVY2d7rB-9">
          <mxGeometry relative="1" as="geometry" />
        </mxCell>
        <mxCell id="wR84KsybCmgSTVY2d7rB-83" style="edgeStyle=orthogonalEdgeStyle;rounded=0;orthogonalLoop=1;jettySize=auto;html=1;exitX=0.5;exitY=1;exitDx=0;exitDy=0;entryX=0.5;entryY=1;entryDx=0;entryDy=0;entryPerimeter=0;endArrow=none;endFill=0;" edge="1" parent="WIyWlLk6GJQsqaUBKTNV-1" source="zkfFHV4jXpPFQw0GAbJ--6" target="wR84KsybCmgSTVY2d7rB-32">
          <mxGeometry relative="1" as="geometry">
            <Array as="points">
              <mxPoint x="560" y="460" />
              <mxPoint x="760" y="460" />
            </Array>
          </mxGeometry>
        </mxCell>
        <mxCell id="zkfFHV4jXpPFQw0GAbJ--6" value="Supervisor" style="swimlane;fontStyle=0;align=center;verticalAlign=top;childLayout=stackLayout;horizontal=1;startSize=26;horizontalStack=0;resizeParent=1;resizeLast=0;collapsible=1;marginBottom=0;rounded=0;shadow=0;strokeWidth=1;" parent="WIyWlLk6GJQsqaUBKTNV-1" vertex="1">
          <mxGeometry x="480" y="320" width="160" height="110" as="geometry">
            <mxRectangle x="130" y="380" width="160" height="26" as="alternateBounds" />
          </mxGeometry>
        </mxCell>
        <mxCell id="zkfFHV4jXpPFQw0GAbJ--11" value="setExpenseLimit()" style="text;align=left;verticalAlign=top;spacingLeft=4;spacingRight=4;overflow=hidden;rotatable=0;points=[[0,0.5],[1,0.5]];portConstraint=eastwest;" parent="zkfFHV4jXpPFQw0GAbJ--6" vertex="1">
          <mxGeometry y="26" width="160" height="26" as="geometry" />
        </mxCell>
        <mxCell id="wR84KsybCmgSTVY2d7rB-27" value="getExpenses()" style="text;align=left;verticalAlign=top;spacingLeft=4;spacingRight=4;overflow=hidden;rotatable=0;points=[[0,0.5],[1,0.5]];portConstraint=eastwest;" vertex="1" parent="zkfFHV4jXpPFQw0GAbJ--6">
          <mxGeometry y="52" width="160" height="26" as="geometry" />
        </mxCell>
        <mxCell id="wR84KsybCmgSTVY2d7rB-28" value="getExpensesCategory()" style="text;align=left;verticalAlign=top;spacingLeft=4;spacingRight=4;overflow=hidden;rotatable=0;points=[[0,0.5],[1,0.5]];portConstraint=eastwest;" vertex="1" parent="zkfFHV4jXpPFQw0GAbJ--6">
          <mxGeometry y="78" width="160" height="26" as="geometry" />
        </mxCell>
        <mxCell id="wR84KsybCmgSTVY2d7rB-30" style="edgeStyle=orthogonalEdgeStyle;rounded=0;orthogonalLoop=1;jettySize=auto;html=1;exitX=0.5;exitY=0;exitDx=0;exitDy=0;endArrow=block;endFill=0;" edge="1" parent="WIyWlLk6GJQsqaUBKTNV-1" source="zkfFHV4jXpPFQw0GAbJ--13" target="wR84KsybCmgSTVY2d7rB-9">
          <mxGeometry relative="1" as="geometry" />
        </mxCell>
        <mxCell id="zkfFHV4jXpPFQw0GAbJ--13" value="Supervised" style="swimlane;fontStyle=0;align=center;verticalAlign=top;childLayout=stackLayout;horizontal=1;startSize=26;horizontalStack=0;resizeParent=1;resizeLast=0;collapsible=1;marginBottom=0;rounded=0;shadow=0;strokeWidth=1;" parent="WIyWlLk6GJQsqaUBKTNV-1" vertex="1">
          <mxGeometry x="680" y="320" width="160" height="60" as="geometry">
            <mxRectangle x="340" y="380" width="170" height="26" as="alternateBounds" />
          </mxGeometry>
        </mxCell>
        <mxCell id="wR84KsybCmgSTVY2d7rB-32" value="supervisor" style="text;align=left;verticalAlign=middle;spacingLeft=4;spacingRight=4;overflow=hidden;rotatable=0;points=[[0,0.5],[1,0.5]];portConstraint=eastwest;" vertex="1" parent="zkfFHV4jXpPFQw0GAbJ--13">
          <mxGeometry y="26" width="160" height="34" as="geometry" />
        </mxCell>
        <mxCell id="wR84KsybCmgSTVY2d7rB-43" value="use" style="edgeStyle=orthogonalEdgeStyle;rounded=0;orthogonalLoop=1;jettySize=auto;html=1;exitX=0.5;exitY=0;exitDx=0;exitDy=0;entryX=0.5;entryY=0;entryDx=0;entryDy=0;dashed=1;endArrow=open;endFill=0;" edge="1" parent="WIyWlLk6GJQsqaUBKTNV-1" source="wR84KsybCmgSTVY2d7rB-9" target="wR84KsybCmgSTVY2d7rB-39">
          <mxGeometry relative="1" as="geometry" />
        </mxCell>
        <mxCell id="wR84KsybCmgSTVY2d7rB-37" value="belongs" style="edgeStyle=orthogonalEdgeStyle;rounded=0;orthogonalLoop=1;jettySize=auto;html=1;endArrow=none;endFill=0;" edge="1" parent="WIyWlLk6GJQsqaUBKTNV-1" source="wR84KsybCmgSTVY2d7rB-18" target="zkfFHV4jXpPFQw0GAbJ--0">
          <mxGeometry relative="1" as="geometry" />
        </mxCell>
        <mxCell id="wR84KsybCmgSTVY2d7rB-18" value="Transaction Category" style="swimlane;fontStyle=2;align=center;verticalAlign=top;childLayout=stackLayout;horizontal=1;startSize=26;horizontalStack=0;resizeParent=1;resizeLast=0;collapsible=1;marginBottom=0;rounded=0;shadow=0;strokeWidth=1;" vertex="1" parent="WIyWlLk6GJQsqaUBKTNV-1">
          <mxGeometry x="40" y="320" width="160" height="90" as="geometry">
            <mxRectangle x="230" y="140" width="160" height="26" as="alternateBounds" />
          </mxGeometry>
        </mxCell>
        <mxCell id="wR84KsybCmgSTVY2d7rB-19" value="" style="group;verticalAlign=middle;" vertex="1" connectable="0" parent="wR84KsybCmgSTVY2d7rB-18">
          <mxGeometry y="26" width="160" height="64" as="geometry" />
        </mxCell>
        <mxCell id="wR84KsybCmgSTVY2d7rB-24" value="" style="group" vertex="1" connectable="0" parent="wR84KsybCmgSTVY2d7rB-19">
          <mxGeometry width="160" height="64" as="geometry" />
        </mxCell>
        <mxCell id="wR84KsybCmgSTVY2d7rB-20" value="+ type" style="text;align=left;verticalAlign=top;spacingLeft=4;spacingRight=4;overflow=hidden;rotatable=0;points=[[0,0.5],[1,0.5]];portConstraint=eastwest;" vertex="1" parent="wR84KsybCmgSTVY2d7rB-24">
          <mxGeometry width="160" height="30" as="geometry" />
        </mxCell>
        <mxCell id="wR84KsybCmgSTVY2d7rB-21" value="+ color" style="text;align=left;verticalAlign=top;spacingLeft=4;spacingRight=4;overflow=hidden;rotatable=0;points=[[0,0.5],[1,0.5]];portConstraint=eastwest;rounded=0;shadow=0;html=0;" vertex="1" parent="wR84KsybCmgSTVY2d7rB-24">
          <mxGeometry y="30" width="160" height="34" as="geometry" />
        </mxCell>
        <mxCell id="wR84KsybCmgSTVY2d7rB-34" value="&lt;b&gt;&lt;font style=&quot;font-size: 16px;&quot;&gt;*&lt;/font&gt;&lt;/b&gt;" style="text;html=1;align=center;verticalAlign=middle;resizable=0;points=[];autosize=1;strokeColor=none;fillColor=none;" vertex="1" parent="WIyWlLk6GJQsqaUBKTNV-1">
          <mxGeometry x="199" y="170" width="30" height="30" as="geometry" />
        </mxCell>
        <mxCell id="wR84KsybCmgSTVY2d7rB-38" value="&lt;b&gt;&lt;font style=&quot;font-size: 16px;&quot;&gt;*&lt;/font&gt;&lt;/b&gt;" style="text;html=1;align=center;verticalAlign=middle;resizable=0;points=[];autosize=1;strokeColor=none;fillColor=none;" vertex="1" parent="WIyWlLk6GJQsqaUBKTNV-1">
          <mxGeometry x="120" y="260" width="30" height="30" as="geometry" />
        </mxCell>
        <mxCell id="wR84KsybCmgSTVY2d7rB-39" value="Authenticator" style="swimlane;fontStyle=0;align=center;verticalAlign=top;childLayout=stackLayout;horizontal=1;startSize=26;horizontalStack=0;resizeParent=1;resizeLast=0;collapsible=1;marginBottom=0;rounded=0;shadow=0;strokeWidth=1;" vertex="1" parent="WIyWlLk6GJQsqaUBKTNV-1">
          <mxGeometry x="600" y="120" width="160" height="60" as="geometry">
            <mxRectangle x="340" y="380" width="170" height="26" as="alternateBounds" />
          </mxGeometry>
        </mxCell>
        <mxCell id="wR84KsybCmgSTVY2d7rB-40" value="isAuthenticatedBy()" style="text;align=left;verticalAlign=middle;spacingLeft=4;spacingRight=4;overflow=hidden;rotatable=0;points=[[0,0.5],[1,0.5]];portConstraint=eastwest;" vertex="1" parent="wR84KsybCmgSTVY2d7rB-39">
          <mxGeometry y="26" width="160" height="34" as="geometry" />
        </mxCell>
        <mxCell id="wR84KsybCmgSTVY2d7rB-49" value="" style="group" vertex="1" connectable="0" parent="WIyWlLk6GJQsqaUBKTNV-1">
          <mxGeometry x="40" y="40" width="160" height="220" as="geometry" />
        </mxCell>
        <mxCell id="zkfFHV4jXpPFQw0GAbJ--0" value="Transaction" style="swimlane;fontStyle=2;align=center;verticalAlign=top;childLayout=stackLayout;horizontal=1;startSize=26;horizontalStack=0;resizeParent=1;resizeLast=0;collapsible=1;marginBottom=0;rounded=0;shadow=0;strokeWidth=1;" parent="wR84KsybCmgSTVY2d7rB-49" vertex="1">
          <mxGeometry y="80" width="160" height="140" as="geometry">
            <mxRectangle x="230" y="140" width="160" height="26" as="alternateBounds" />
          </mxGeometry>
        </mxCell>
        <mxCell id="wR84KsybCmgSTVY2d7rB-8" value="" style="group" vertex="1" connectable="0" parent="zkfFHV4jXpPFQw0GAbJ--0">
          <mxGeometry y="26" width="160" height="114" as="geometry" />
        </mxCell>
        <mxCell id="zkfFHV4jXpPFQw0GAbJ--1" value="+ name" style="text;align=left;verticalAlign=top;spacingLeft=4;spacingRight=4;overflow=hidden;rotatable=0;points=[[0,0.5],[1,0.5]];portConstraint=eastwest;" parent="wR84KsybCmgSTVY2d7rB-8" vertex="1">
          <mxGeometry width="160" height="28.500000000000004" as="geometry" />
        </mxCell>
        <mxCell id="zkfFHV4jXpPFQw0GAbJ--2" value="+ type" style="text;align=left;verticalAlign=top;spacingLeft=4;spacingRight=4;overflow=hidden;rotatable=0;points=[[0,0.5],[1,0.5]];portConstraint=eastwest;rounded=0;shadow=0;html=0;" parent="wR84KsybCmgSTVY2d7rB-8" vertex="1">
          <mxGeometry y="28.500000000000004" width="160" height="28.500000000000004" as="geometry" />
        </mxCell>
        <mxCell id="zkfFHV4jXpPFQw0GAbJ--3" value="+ amount" style="text;align=left;verticalAlign=top;spacingLeft=4;spacingRight=4;overflow=hidden;rotatable=0;points=[[0,0.5],[1,0.5]];portConstraint=eastwest;rounded=0;shadow=0;html=0;" parent="wR84KsybCmgSTVY2d7rB-8" vertex="1">
          <mxGeometry y="57.00000000000001" width="160" height="28.500000000000004" as="geometry" />
        </mxCell>
        <mxCell id="wR84KsybCmgSTVY2d7rB-6" value="+ date" style="text;align=left;verticalAlign=top;spacingLeft=4;spacingRight=4;overflow=hidden;rotatable=0;points=[[0,0.5],[1,0.5]];portConstraint=eastwest;rounded=0;shadow=0;html=0;" vertex="1" parent="wR84KsybCmgSTVY2d7rB-8">
          <mxGeometry y="85.50000000000001" width="160" height="28.500000000000004" as="geometry" />
        </mxCell>
        <mxCell id="wR84KsybCmgSTVY2d7rB-46" style="edgeStyle=orthogonalEdgeStyle;rounded=0;orthogonalLoop=1;jettySize=auto;html=1;endArrow=none;endFill=0;dashed=1;" edge="1" parent="wR84KsybCmgSTVY2d7rB-49" source="wR84KsybCmgSTVY2d7rB-45" target="zkfFHV4jXpPFQw0GAbJ--0">
          <mxGeometry relative="1" as="geometry" />
        </mxCell>
        <mxCell id="wR84KsybCmgSTVY2d7rB-45" value="&lt;font style=&quot;font-size: 9px;&quot;&gt;Commercial transaction performed by the user&lt;/font&gt;" style="rounded=0;whiteSpace=wrap;html=1;" vertex="1" parent="wR84KsybCmgSTVY2d7rB-49">
          <mxGeometry x="20" width="120" height="40" as="geometry" />
        </mxCell>
        <mxCell id="wR84KsybCmgSTVY2d7rB-53" value="" style="group" vertex="1" connectable="0" parent="WIyWlLk6GJQsqaUBKTNV-1">
          <mxGeometry x="810" y="70" width="160" height="160" as="geometry" />
        </mxCell>
        <mxCell id="wR84KsybCmgSTVY2d7rB-15" value="Developer" style="swimlane;fontStyle=0;align=center;verticalAlign=top;childLayout=stackLayout;horizontal=1;startSize=26;horizontalStack=0;resizeParent=1;resizeLast=0;collapsible=1;marginBottom=0;rounded=0;shadow=0;strokeWidth=1;" vertex="1" parent="wR84KsybCmgSTVY2d7rB-53">
          <mxGeometry y="90" width="160" height="70" as="geometry">
            <mxRectangle x="340" y="380" width="170" height="26" as="alternateBounds" />
          </mxGeometry>
        </mxCell>
        <mxCell id="wR84KsybCmgSTVY2d7rB-52" style="edgeStyle=orthogonalEdgeStyle;rounded=0;orthogonalLoop=1;jettySize=auto;html=1;entryX=0.5;entryY=0;entryDx=0;entryDy=0;endArrow=none;endFill=0;dashed=1;" edge="1" parent="wR84KsybCmgSTVY2d7rB-53" source="wR84KsybCmgSTVY2d7rB-51" target="wR84KsybCmgSTVY2d7rB-15">
          <mxGeometry relative="1" as="geometry" />
        </mxCell>
        <mxCell id="wR84KsybCmgSTVY2d7rB-51" value="&lt;font style=&quot;font-size: 8px;&quot;&gt;Developer of a company who uses EZWalet API as a plug-in to his company software&lt;/font&gt;" style="rounded=0;whiteSpace=wrap;html=1;" vertex="1" parent="wR84KsybCmgSTVY2d7rB-53">
          <mxGeometry x="15" width="130" height="50" as="geometry" />
        </mxCell>
        <mxCell id="wR84KsybCmgSTVY2d7rB-82" style="edgeStyle=orthogonalEdgeStyle;rounded=0;orthogonalLoop=1;jettySize=auto;html=1;endArrow=block;endFill=0;" edge="1" parent="WIyWlLk6GJQsqaUBKTNV-1" source="wR84KsybCmgSTVY2d7rB-54" target="wR84KsybCmgSTVY2d7rB-9">
          <mxGeometry relative="1" as="geometry" />
        </mxCell>
        <mxCell id="wR84KsybCmgSTVY2d7rB-54" value="Administrator" style="swimlane;fontStyle=0;align=center;verticalAlign=top;childLayout=stackLayout;horizontal=1;startSize=26;horizontalStack=0;resizeParent=1;resizeLast=0;collapsible=1;marginBottom=0;rounded=0;shadow=0;strokeWidth=1;" vertex="1" parent="WIyWlLk6GJQsqaUBKTNV-1">
          <mxGeometry x="280" y="320" width="160" height="140" as="geometry">
            <mxRectangle x="130" y="380" width="160" height="26" as="alternateBounds" />
          </mxGeometry>
        </mxCell>
        <mxCell id="wR84KsybCmgSTVY2d7rB-91" value="" style="group" vertex="1" connectable="0" parent="wR84KsybCmgSTVY2d7rB-54">
          <mxGeometry y="26" width="160" height="114" as="geometry" />
        </mxCell>
        <mxCell id="wR84KsybCmgSTVY2d7rB-55" value="getUsers()" style="text;align=left;verticalAlign=top;spacingLeft=4;spacingRight=4;overflow=hidden;rotatable=0;points=[[0,0.5],[1,0.5]];portConstraint=eastwest;" vertex="1" parent="wR84KsybCmgSTVY2d7rB-91">
          <mxGeometry width="160" height="28.500000000000004" as="geometry" />
        </mxCell>
        <mxCell id="wR84KsybCmgSTVY2d7rB-56" value="banUser()" style="text;align=left;verticalAlign=top;spacingLeft=4;spacingRight=4;overflow=hidden;rotatable=0;points=[[0,0.5],[1,0.5]];portConstraint=eastwest;" vertex="1" parent="wR84KsybCmgSTVY2d7rB-91">
          <mxGeometry y="28.500000000000004" width="160" height="28.500000000000004" as="geometry" />
        </mxCell>
        <mxCell id="wR84KsybCmgSTVY2d7rB-57" value="deleteUser()" style="text;align=left;verticalAlign=top;spacingLeft=4;spacingRight=4;overflow=hidden;rotatable=0;points=[[0,0.5],[1,0.5]];portConstraint=eastwest;" vertex="1" parent="wR84KsybCmgSTVY2d7rB-91">
          <mxGeometry y="57.00000000000001" width="160" height="28.500000000000004" as="geometry" />
        </mxCell>
        <mxCell id="wR84KsybCmgSTVY2d7rB-90" value="bakup()" style="text;align=left;verticalAlign=top;spacingLeft=4;spacingRight=4;overflow=hidden;rotatable=0;points=[[0,0.5],[1,0.5]];portConstraint=eastwest;" vertex="1" parent="wR84KsybCmgSTVY2d7rB-91">
          <mxGeometry y="85.50000000000001" width="160" height="28.500000000000004" as="geometry" />
        </mxCell>
        <mxCell id="wR84KsybCmgSTVY2d7rB-9" value="User" style="swimlane;fontStyle=2;align=center;verticalAlign=top;childLayout=stackLayout;horizontal=1;startSize=26;horizontalStack=0;resizeParent=1;resizeLast=0;collapsible=1;marginBottom=0;rounded=0;shadow=0;strokeWidth=1;" vertex="1" parent="WIyWlLk6GJQsqaUBKTNV-1">
          <mxGeometry x="400" y="120" width="160" height="140" as="geometry">
            <mxRectangle x="230" y="140" width="160" height="26" as="alternateBounds" />
          </mxGeometry>
        </mxCell>
        <mxCell id="wR84KsybCmgSTVY2d7rB-10" value="" style="group" vertex="1" connectable="0" parent="wR84KsybCmgSTVY2d7rB-9">
          <mxGeometry y="26" width="160" height="114" as="geometry" />
        </mxCell>
        <mxCell id="wR84KsybCmgSTVY2d7rB-11" value="+ username" style="text;align=left;verticalAlign=top;spacingLeft=4;spacingRight=4;overflow=hidden;rotatable=0;points=[[0,0.5],[1,0.5]];portConstraint=eastwest;" vertex="1" parent="wR84KsybCmgSTVY2d7rB-10">
          <mxGeometry width="160" height="28.500000000000004" as="geometry" />
        </mxCell>
        <mxCell id="wR84KsybCmgSTVY2d7rB-12" value="+ email" style="text;align=left;verticalAlign=top;spacingLeft=4;spacingRight=4;overflow=hidden;rotatable=0;points=[[0,0.5],[1,0.5]];portConstraint=eastwest;rounded=0;shadow=0;html=0;" vertex="1" parent="wR84KsybCmgSTVY2d7rB-10">
          <mxGeometry y="28.500000000000004" width="160" height="28.500000000000004" as="geometry" />
        </mxCell>
        <mxCell id="wR84KsybCmgSTVY2d7rB-13" value="+ password" style="text;align=left;verticalAlign=top;spacingLeft=4;spacingRight=4;overflow=hidden;rotatable=0;points=[[0,0.5],[1,0.5]];portConstraint=eastwest;rounded=0;shadow=0;html=0;" vertex="1" parent="wR84KsybCmgSTVY2d7rB-10">
          <mxGeometry y="57.00000000000001" width="160" height="28.500000000000004" as="geometry" />
        </mxCell>
        <mxCell id="wR84KsybCmgSTVY2d7rB-14" value="+ refreshToken" style="text;align=left;verticalAlign=top;spacingLeft=4;spacingRight=4;overflow=hidden;rotatable=0;points=[[0,0.5],[1,0.5]];portConstraint=eastwest;rounded=0;shadow=0;html=0;" vertex="1" parent="wR84KsybCmgSTVY2d7rB-10">
          <mxGeometry y="85.50000000000001" width="160" height="28.500000000000004" as="geometry" />
        </mxCell>
        <mxCell id="wR84KsybCmgSTVY2d7rB-48" style="edgeStyle=orthogonalEdgeStyle;rounded=1;orthogonalLoop=1;jettySize=auto;html=1;entryX=0;entryY=0.5;entryDx=0;entryDy=0;endArrow=none;endFill=0;dashed=1;" edge="1" parent="WIyWlLk6GJQsqaUBKTNV-1" target="wR84KsybCmgSTVY2d7rB-11">
          <mxGeometry relative="1" as="geometry">
            <mxPoint x="340" y="80" as="sourcePoint" />
          </mxGeometry>
        </mxCell>
        <mxCell id="wR84KsybCmgSTVY2d7rB-47" value="&lt;font style=&quot;font-size: 9px;&quot;&gt;Physical person interacting with the application system&lt;br&gt;&lt;/font&gt;" style="rounded=0;whiteSpace=wrap;html=1;movable=1;resizable=1;rotatable=1;deletable=1;editable=1;locked=0;connectable=1;" vertex="1" parent="WIyWlLk6GJQsqaUBKTNV-1">
          <mxGeometry x="280" y="40" width="120" height="40" as="geometry" />
        </mxCell>
        <mxCell id="wR84KsybCmgSTVY2d7rB-88" value="1" style="text;html=1;align=center;verticalAlign=middle;resizable=0;points=[];autosize=1;strokeColor=none;fillColor=none;" vertex="1" parent="WIyWlLk6GJQsqaUBKTNV-1">
          <mxGeometry x="560" y="430" width="30" height="30" as="geometry" />
        </mxCell>
        <mxCell id="wR84KsybCmgSTVY2d7rB-89" value="N" style="text;html=1;align=center;verticalAlign=middle;resizable=0;points=[];autosize=1;strokeColor=none;fillColor=none;" vertex="1" parent="WIyWlLk6GJQsqaUBKTNV-1">
          <mxGeometry x="730" y="380" width="30" height="30" as="geometry" />
        </mxCell>
      </root>
    </mxGraphModel>
  </diagram>
</mxfile>
